<svg xmlns="http://www.w3.org/2000/svg" xmlns:xlink="http://www.w3.org/1999/xlink" viewBox="0 0 132.42 169.6"><defs><style>.cls-1{fill:none;}.cls-2{clip-path:url(#clip-path);}.cls-3{fill:#c6c6c6;}</style><clipPath id="clip-path" transform="translate(-9 -7)"><rect class="cls-1" width="150.42" height="177.6"/></clipPath></defs><title>greyHand_big</title><g id="Ebene_2" data-name="Ebene 2"><g id="Ebene_1-2" data-name="Ebene 1"><g class="cls-2"><path class="cls-3" d="M56.43,86.74c.86-6.25-1.62-12.74-3.27-19.37-1.24-5-2.67-10-3.62-15-.76-4-1-8.12-1.33-12.19-.46-5-1-10.06-1.19-15.1a14.32,14.32,0,0,1,1.24-5.6,5.14,5.14,0,0,1,4.82-3.33,4.4,4.4,0,0,1,4.47,2.91A53.72,53.72,0,0,1,60,27.64c1.07,5.79,1.82,11.63,2.8,17.43.23,1.41.87,2.76,1.23,4.15.82,3.14,1.63,6.28,2.38,9.44.9,3.84,1.72,7.7,2.62,11.53a4.57,4.57,0,0,0,5.11,3.41,1.51,1.51,0,0,0,.8-1.2c0-2.11-.11-4.23-.3-6.33-.25-2.66-.53-5.32-1-7.95a92.74,92.74,0,0,1-1.12-16.64c.09-5.54-.18-11.1.08-16.63.21-4.41,0-8.89,1.22-13.22a5.88,5.88,0,0,1,7.51-4.38,4.19,4.19,0,0,1,2.92,3.14A18.58,18.58,0,0,1,85.16,15c.18,5.46.28,10.93.27,16.39,0,5,1,9.88,1.72,14.79A92.16,92.16,0,0,1,88,63.87a65.1,65.1,0,0,0,.13,7.39c0,.55.78,1.25,1.37,1.52a2.92,2.92,0,0,0,3.41-.59c1.43-1.39,1.66-3.24,1.86-5.09.45-4.23.8-8.48,1.39-12.69.48-3.38,1.28-6.72,1.92-10.07a11.52,11.52,0,0,0,.15-1.44q.52-7.36,1-14.73c.13-2,.07-4,.36-5.91a5.44,5.44,0,0,1,2.4-4.19,4.94,4.94,0,0,1,7.32,2.35,8.39,8.39,0,0,1,.65,2.81c.06,4.84.11,9.69,0,14.53-.11,5-.62,10-.6,15a85.06,85.06,0,0,1-1.68,17.3c-.62,3-1,6.14-1.55,9.22a1.73,1.73,0,0,0,.07,1.14,6.06,6.06,0,0,0,4.51,2.37c1.47.09,2.6-.89,3.39-2.3,2.2-3.9,4.34-7.87,6.87-11.55a86.68,86.68,0,0,0,7.5-13.61,79.69,79.69,0,0,1,5.1-9.51,4.26,4.26,0,0,1,6.06-1.69,2.69,2.69,0,0,1,1.7,3.2c-1,6.35-2.43,12.56-5.89,18.16-1.21,1.95-1.81,4.27-2.72,6.41-.79,1.85-1.57,3.71-2.45,5.52C128.6,81,127.06,84.58,125,87.9a19.61,19.61,0,0,0-2.88,7.69c-.4,3-.82,6-1,9-.42,7.56-.7,15.12-1.06,22.68-.32,6.73-2.72,12.83-5.57,18.84-1.36,2.88-2.28,6-3.37,9-.6,1.66.19,1.61-1,3-.14.16-.35.44-.29.57.79,2.11-.5,4-.58,6-.12,2.89-.38,5.78-.67,8.66a1.87,1.87,0,0,1-.92,1.34c-6.82,2.58-15,2-22.29,1.18-5-.58-2.5.7-7.41-.35-.64-.14-2.32.44-3,.3-2.79-.62-7.64-.72-9-5,0-3.34-1.35-8.13-.93-12.54a11.55,11.55,0,0,0-.79-5.23,3.92,3.92,0,0,0-.91-1.06c-2.39-2.62-3.61-5.3-6.09-7.84-3.9-4-7.77-8-11.91-11.78-2.85-2.59-4.55-5.81-6.08-9.16a25.7,25.7,0,0,0-4.8-7.19c-3-3.16-5.79-6.51-8.64-9.81a28.19,28.19,0,0,0-9.43-6.83c-1.86-.9-3.78-1.67-5.58-2.65S8.56,94,9.44,92a8.58,8.58,0,0,1,9-4.78A76.44,76.44,0,0,1,26.82,89a21.37,21.37,0,0,1,8.24,4.5c4.52,3.8,8.87,7.78,13.37,11.59a13.59,13.59,0,0,0,3.46,1.82,1.11,1.11,0,0,0,1.68-.86c.93-3.74,2.11-7.43,2.78-11.21.41-2.35.08-4.84.08-8.05" transform="translate(-9 -7)"/></g></g></g></svg>