<svg xmlns="http://www.w3.org/2000/svg" viewBox="0 0 174.16 106.87"><title>Element 1</title><g id="Ebene_2" data-name="Ebene 2"><g id="Ebene_1-2" data-name="Ebene 1"><path d="M0,46Q0,33.27,0,20.51C0,18.14.19,18,2.58,18c9.86,0,19.72,0,29.59,0a4.46,4.46,0,0,0,3.51-1.41,30.84,30.84,0,0,1,13.77-8.3C54.87,6.72,60.28,5.1,65.77,3.89a27.2,27.2,0,0,1,17.39,2A3.81,3.81,0,0,0,87,5.72c2.92-1.6,6-3,8.92-4.49,3.25-1.65,6.54-1.48,9.94-.44a118.49,118.49,0,0,1,24.3,11.09c3.58,2.06,7,4.35,10.63,6.42a7.06,7.06,0,0,0,3.33,1c9.18,0,18.36-.15,27.53-.24,2.3,0,2.53.2,2.53,2.45q0,25.43,0,50.85c0,2.14-.3,2.45-2.46,2.42q-14.34-.19-28.68-.46a4.38,4.38,0,0,0-3.57,1.5c-2,2.14-4.23,4.09-6.35,6.13a3.47,3.47,0,0,0-.73,1c-1.62,4-4.76,6.08-8.79,7.11a5.27,5.27,0,0,0-2.2,1.14,11.21,11.21,0,0,1-9.73,3.21,2,2,0,0,0-2.15,1,11.63,11.63,0,0,1-8.83,4.78,5,5,0,0,0-2.41.62,8.81,8.81,0,0,1-6.63,1.74c-.81-.08-1.61-.14-2.42-.25a3.26,3.26,0,0,0-2.92.93c-.8.77-1.66,1.48-2.52,2.17C80.4,108,74.93,107,72.47,103.61a6.29,6.29,0,0,1-.47-.77,1.39,1.39,0,0,1-.32-.8c0-.56,0-1.07,0-1.33-1.53-.51-2.3,1-3.45,1.72a6.31,6.31,0,0,1-.66.29,7.47,7.47,0,0,1-5.8-.67l-.56-.29a9.67,9.67,0,0,1-3.54-3.61,7.74,7.74,0,0,1-.37-.7c-.36-.63-.45-1.36-.9-1.8a1.24,1.24,0,0,0-.6-.32c-1.28.77-2.57,2.3-4.23,2.43a5.34,5.34,0,0,1-.69,0A8.06,8.06,0,0,1,48,97.19a8.41,8.41,0,0,1-4.28-3.42c-.12-.19-.23-.39-.34-.6A5.83,5.83,0,0,1,42.76,90c-2,.77-4.36,1.53-6.33.08-.26-.13-.5-.26-.74-.41a9.32,9.32,0,0,1-4.43-7.78,4,4,0,0,1,1.44-3.41c1-.75.81-1.46,0-2.22a12.35,12.35,0,0,1-1.32-1.39,3.37,3.37,0,0,0-3-1.28c-8.45.12-16.9.19-25.36.28H2.37C.21,73.81,0,73.62,0,71.49V46Zm2-.12H2v23.7c0,2.15.09,2.24,2.25,2.22,8-.08,16.06-.13,24.08-.3,2,0,3.53.26,4.61,2a8.72,8.72,0,0,0,1.13,1.23c1.16,1.21,1.26,1.22,2.46.12,2.05-1.88,4.13-3.72,6.12-5.66a4,4,0,0,1,4.12-1,8.67,8.67,0,0,1,2.69,1.25c.19.13.37.28.55.43a8,8,0,0,1,2.76,5.48c2-1,3.08-3.07,4.65-4.71l.51-.58c1.9-2.1,3.79-4.22,5.66-6.34a7.8,7.8,0,0,1,7.88-2.54,7.47,7.47,0,0,1,6,5.4,6.94,6.94,0,0,0,.51,1,8.79,8.79,0,0,0,1-.76c.55-.55.29-1-.11-1.55-.27-.37-.2-1-.28-1.47.47,0,1-.31,1.39-.12a1.58,1.58,0,0,0,2.14-.4c2.42-2.31,5.27-2.52,8.21-1.34a8.87,8.87,0,0,1,4.68,4.36,6.67,6.67,0,0,1,.29.74,2.94,2.94,0,0,1,.14,1.43c.22,2-2.85,4.86-.54,5.63,2,.51,3.84.51,5.51,1.69.21.18.41.37.6.56a7.62,7.62,0,0,1,.4,10,6.33,6.33,0,0,0-1.36,3.87c-.05,1.58-.08,3.16-.22,4.74-.29,3.36.16,3.74,3.38,2.73a7.66,7.66,0,0,0,5.78-7.89c0-5.55,0-11.11.06-16.66a3.55,3.55,0,0,0-1.27-2.9c-5.13-4.64-10.26-9.28-15.31-14a5.3,5.3,0,0,1-1.22-2.54c-.1-.4.43-1,.67-1.44a6.57,6.57,0,0,1,1.31,1.07c.43.56.56,1.38,1,1.83,5,4.58,9.91,9.16,15,13.62A4.85,4.85,0,0,1,111,72.77c-.11,5.89-.08,11.79-.09,17.68,0,1.61.2,1.88,1.79,2a8.86,8.86,0,0,0,6.62-2.2,2.83,2.83,0,0,0,1.17-2.66c-.21-2.16-.43-4.33-.5-6.51-.22-6.18-.35-12.37-.58-18.56a4,4,0,0,0-.76-2.34c-2-2.23-4.07-4.37-6.2-6.46-3.65-3.59-7.41-7.08-11-10.7a6.1,6.1,0,0,1-1.29-2.68c-.11-.4.38-1,.6-1.47a6,6,0,0,1,1.28,1c.43.56.57,1.36,1,1.85,1.88,1.92,3.87,3.73,5.77,5.63,3.89,3.9,7.79,7.79,11.58,11.78a4.59,4.59,0,0,1,1,2.77c.24,5.46.32,10.92.51,16.38.11,2.77.34,5.54.54,8.31,0,.73.22,1.34,1.2,1.28,2.84-.19,6.6-3.44,6.76-6.22q.65-11.62,1-23.27a10.27,10.27,0,0,0-2.67-7.68c-7.49-7.85-15-15.7-22.51-23.49a6.6,6.6,0,0,0-2.83-1.58c-2.58-.76-5.22-1.3-7.83-2s-2.66-.68-3.88,1.87C88.55,32,84.76,38,79.12,42.64c-3.55,2.9-7.49,4.65-12.21,3.2-2.74-.85-4-2.7-3.48-5.55a32.27,32.27,0,0,1,1.3-5.21q3.43-9.85,7.06-19.65a4.46,4.46,0,0,1,1.75-2c2.53-1.58,5.16-3,7.74-4.52A5.35,5.35,0,0,0,82.17,8a4,4,0,0,0-1-.74C77,5.71,72.51,4.64,68,5.59c-6.16,1.32-12.25,3-18.33,4.74a27.69,27.69,0,0,0-13,8.12A4.45,4.45,0,0,1,33.12,20c-9.53,0-19,0-28.58,0C2,20,2,20,2,22.56Zm170.17,1.06h0V24c0-3,0-3-3.06-3-8.58.08-17.16.19-25.74.22a6.34,6.34,0,0,1-3-.78c-6.44-3.68-12.75-7.62-19.27-11.14a65.73,65.73,0,0,0-18.83-7.21,5.32,5.32,0,0,0-2.75.1,65.16,65.16,0,0,0-8.13,3.4c-5.56,3-11,6.17-16.48,9.34a3.46,3.46,0,0,0-1.42,1.69q-3.31,9-6.47,18.08a44.6,44.6,0,0,0-1.56,5.68c-.41,2,.26,2.88,2.23,3.52a8.11,8.11,0,0,0,5.39-.15A17,17,0,0,0,79,40c5.35-5,9-11.14,11.89-17.75.64-1.43,1.08-1.66,2.59-1.28,2.94.72,5.86,1.54,8.83,2.15a11.68,11.68,0,0,1,6.63,3.8c6.4,7,13,13.9,19.76,20.61a14.89,14.89,0,0,1,4.72,11.58c-.19,6.14-.44,12.28-.64,18.42a6,6,0,0,0,.26,1.3,4.37,4.37,0,0,0,1.16-.59c1.42-1.41,2.86-2.82,4.17-4.33A4.25,4.25,0,0,1,142,72.3c9.05.21,18.1.32,27.14.47,3,0,3,0,3-2.91Q172.18,58.4,172.17,46.94ZM66.42,101.25a12.5,12.5,0,0,0,5.76-4.45l.54-.64c1.36-1.4,2.32-3,3.48-4.15l.51-.49c1.15-1.83,3-3.11,4.25-5l.42-.48.42-.47.51-.66a5.4,5.4,0,0,0,.41-.42c.13-.15.25-.31.37-.46a8.76,8.76,0,0,0,.8-1l.36-.54c1.3-2.55,3.35-4.08,4.86-6.29l.44-.63c.11-.2.23-.4.36-.59s.27-.39.41-.58.29-.37.44-.55l.45-.55c1.77-1.81,2.8-4.63,1.33-7a4.8,4.8,0,0,0-.36-.52,6.65,6.65,0,0,0-3.71-2.28,5,5,0,0,0-5.35,1.56c-1.19,1.33-2.37,2.69-3.52,4.07l-.55.61c-1.44,2-3.24,3.8-4.85,5.83-.17.19-.34.37-.5.56s-.33.37-.49.55l-.6.61c-2.24,2.28-4.59,4.55-6.71,6.94l-.52.6c-1.35,1.52-2.38,3.31-3.93,5-.13.18-.26.38-.39.57-.25.39-.49.8-.71,1.23-.12.22-.23.45-.33.67a8.82,8.82,0,0,0-.91,4.3,4.87,4.87,0,0,0,.28.57,8.94,8.94,0,0,0,.9,1.21,7.08,7.08,0,0,0,1.05,1c.12.1.25.19.38.28a9.6,9.6,0,0,0,3.87,1.52Zm9.36-32.62a1.93,1.93,0,0,0-.12-.73c-.08-.25-.19-.51-.27-.77s-.11-.35-.17-.51a3.9,3.9,0,0,0-.2-.47A6.1,6.1,0,0,0,65.16,65c-1.94,2.28-3.93,4.5-5.89,6.75l-1.14,1.3-.38.44c-.9.82-1.67,2.1-2.65,3l-.48.52-.49.54-.5.57c-.16.2-.33.38-.5.57-1.66,1.82-3.45,3.1-5,4.87-.19.18-.37.37-.55.57a16.06,16.06,0,0,0-1.52,1.73c-.15.21-.3.42-.44.64C44.81,87.9,44,90,44.88,91.77a3.5,3.5,0,0,0,.36.69q.15.24.33.48a6.63,6.63,0,0,0,.85.93,7.63,7.63,0,0,0,2,1.39,5.87,5.87,0,0,0,.65.26c2.7.58,4.75-1.22,7-2.53.17-.14.33-.29.49-.44.32-.3.63-.61.93-.94L58,91l.5-.57.48-.59c1.75-2.24,3.8-4.29,5.57-6.6l.53-.6q3.45-3.9,6.58-8l.5-.66c1.12-1.79,2.4-3.07,3.42-4.75C75.62,69.09,75.7,68.86,75.78,68.63Zm4.41,36.24a9.86,9.86,0,0,0,2.71-1.48c3.41-3.34,6.77-6.74,10-10.26,2.42-2.64,4.66-5.46,6.86-8.28a5.11,5.11,0,0,0,.32-6.21,7.07,7.07,0,0,0-.49-.66,5.78,5.78,0,0,0-.52-.57c-2-1.81-5.57-2.07-7.52-.09l-.49.56c-1.4,1.82-3.19,3.36-4.48,5.07a2.19,2.19,0,0,0-.31.46l-.34.42-.35.53a16.22,16.22,0,0,1-1.1,1.48l-.46.59-.49.65-.45.55c-.41.58-.82,1.14-1.25,1.69l-.43.54c-.45.6-1,.86-1.33,1.56l-.46.5q-.91,1-1.89,1.89l-.46.51c-1.07,1.2-2.1,2.43-3.22,3.54a1.7,1.7,0,0,0-.55.7,6.24,6.24,0,0,0-.31,2,2.42,2.42,0,0,0,.2.69,3.6,3.6,0,0,0,.43.74,6.14,6.14,0,0,0,.29.57,3.78,3.78,0,0,0,.5.57C76,104.44,77.79,104.64,80.19,104.87ZM50.53,75.94c-.08-1.88-.6-3.67-2-4.65-.13-.11-.27-.21-.41-.31-1.85-1.25-3-1.2-4.67.31-3,2.75-5.92,5.55-8.92,8.27a3.47,3.47,0,0,0-1.09,3.69,7.4,7.4,0,0,0,1.31,2.8,6.44,6.44,0,0,0,.48.56,5.53,5.53,0,0,0,1.3,1.27,3.47,3.47,0,0,0,.67.38,4.46,4.46,0,0,0,4.68-1c.22-.16.42-.33.63-.51A15.07,15.07,0,0,0,44.18,85l.49-.48L45.2,84l.57-.65c.18-.2.35-.41.52-.62l.5-.63c1-1.9,2.74-3.13,3.46-5a4.45,4.45,0,0,0,.19-.65C50.47,76.23,50.5,76.06,50.53,75.94Zm41.78,24.68c1-.12,1.64-.13,2.25-.27,2-.45,2.73-1.25,2.93-3.27.16-1.53.26-3.06.33-4.59a4.2,4.2,0,0,0-.29-1.16,5.87,5.87,0,0,0-1,.72C94.85,94,93.15,96,91.47,98c-.53.62-1,1.32-1.47,2Z"/></g></g></svg>