{
    "asset" : {
        "generator" : "Khronos glTF Blender I/O v0.9.24",
        "version" : "2.0"
    },
    "scene" : 0,
    "scenes" : [
        {
            "name" : "Scene",
            "nodes" : [
                0
            ]
        }
    ],
    "nodes" : [
        {
            "mesh" : 0,
            "name" : "hand",
            "rotation" : [
                -1,
                0,
                0,
                7.549790126404332e-08
            ]
        }
    ],
    "materials" : [
        {
            "doubleSided" : true,
            "name" : "Material.001",
            "pbrMetallicRoughness" : {
                "baseColorFactor" : [
                    0.800000011920929,
                    0.800000011920929,
                    0.800000011920929,
                    1
                ],
                "metallicFactor" : 0,
                "roughnessFactor" : 0.5
            }
        }
    ],
    "meshes" : [
        {
            "name" : "hand",
            "primitives" : [
                {
                    "attributes" : {
                        "POSITION" : 0,
                        "NORMAL" : 1,
                        "TANGENT" : 2,
                        "TEXCOORD_0" : 3
                    },
                    "indices" : 4,
                    "material" : 0
                }
            ]
        }
    ],
    "accessors" : [
        {
            "bufferView" : 0,
            "componentType" : 5126,
            "count" : 3897,
            "max" : [
                1.0943299531936646,
                0.1300089955329895,
                1.0325050354003906
            ],
            "min" : [
                -1.0495630502700806,
                -4.707406997680664,
                -0.668724000453949
            ],
            "type" : "VEC3"
        },
        {
            "bufferView" : 1,
            "componentType" : 5126,
            "count" : 3897,
            "type" : "VEC3"
        },
        {
            "bufferView" : 2,
            "componentType" : 5126,
            "count" : 3897,
            "type" : "VEC4"
        },
        {
            "bufferView" : 3,
            "componentType" : 5126,
            "count" : 3897,
            "type" : "VEC2"
        },
        {
            "bufferView" : 4,
            "componentType" : 5123,
            "count" : 11544,
            "type" : "SCALAR"
        }
    ],
    "bufferViews" : [
        {
            "buffer" : 0,
            "byteLength" : 46764,
            "byteOffset" : 0
        },
        {
            "buffer" : 0,
            "byteLength" : 46764,
            "byteOffset" : 46764
        },
        {
            "buffer" : 0,
            "byteLength" : 62352,
            "byteOffset" : 93528
        },
        {
            "buffer" : 0,
            "byteLength" : 31176,
            "byteOffset" : 155880
        },
        {
            "buffer" : 0,
            "byteLength" : 23088,
            "byteOffset" : 187056
        }
    ],
    "buffers" : [
        {
            "byteLength" : 210144,
            "uri" : "data:application/octet-stream;base64,"
        }
    ]
}
